C:\GBW_MyPrograms\PredSimResults\gait1018\gait1018_v27.mot
version=1
nRows=6
nColumns=29
inDegrees=yes
endheader
                time	         pelvis_tilt	           pelvis_tx	           pelvis_ty	       hip_flexion_l	       hip_flexion_r	        knee_angle_l	        knee_angle_r	       ankle_angle_l	       ankle_angle_r	    lumbar_extension	hamstrings_r/activation	bifemsh_r/activation	glut_max_r/activation	iliopsoas_r/activation	rect_fem_r/activation	  vasti_r/activation	gastroc_r/activation	 soleus_r/activation	tib_ant_r/activation	hamstrings_l/activation	bifemsh_l/activation	glut_max_l/activation	iliopsoas_l/activation	rect_fem_l/activation	  vasti_l/activation	gastroc_l/activation	 soleus_l/activation	tib_ant_l/activation	
          0.51240678	         -8.11052549	          0.63707079	          0.89479738	         32.12769381	         -8.52739154	        -11.65244532	        -12.07848285	          8.78168214	          3.61115199	          1.21932785	          0.05000000	          0.10608795	          0.05000000	          0.52453820	          0.08024548	          0.05854011	          0.26439481	          0.33172068	          0.05000000	          0.21811042	          0.05000000	          0.07912946	          0.05000000	          0.08024548	          0.05464518	          0.05000000	          0.05752461	          0.20210306	
          0.52265492	         -8.11879976	          0.65306613	          0.89430868	         31.27894156	         -8.26500917	        -10.75066314	        -14.25035266	          8.61834480	          2.36987638	          1.60505490	          0.05000000	          0.09061133	          0.05000000	          0.50644481	          0.06853888	          0.05000000	          0.22582362	          0.28332767	          0.05000000	          0.20897024	          0.05000000	          0.08181840	          0.05000000	          0.06853888	          0.08103061	          0.05000003	          0.05618980	          0.20979087	
          0.53290305	         -8.11889418	          0.66929391	          0.89367496	         30.36102451	         -7.71608892	        -10.25804164	        -16.94157115	          8.40096296	          0.94461102	          2.01228743	          0.05000000	          0.07739252	          0.05000000	          0.44353334	          0.05854010	          0.05000000	          0.19287939	          0.24199447	          0.05000000	          0.18811355	          0.05000000	          0.08901871	          0.05000000	          0.05854010	          0.11971617	          0.05000000	          0.05110917	          0.24543457	
          0.54315119	         -8.11157206	          0.68564607	          0.89289308	         29.38883729	         -6.88137762	        -10.29742930	        -20.10039437	          8.10833124	         -0.80668827	          2.42863715	          0.05000000	          0.06610212	          0.05000000	          0.37882857	          0.05000000	          0.05000000	          0.16474121	          0.20669116	          0.05000000	          0.16952143	          0.05000000	          0.12771857	          0.05000000	          0.05000000	          0.14326490	          0.05759054	          0.05583678	          0.23417921	
          0.55339932	         -8.10237511	          0.70183208	          0.89215494	         28.39140497	         -5.76136067	        -10.42575330	        -23.64948960	          7.83912055	         -2.93036728	          2.82355434	          0.05000000	          0.05645883	          0.06672880	          0.32356323	          0.05000000	          0.05000000	          0.14070797	          0.17653806	          0.25371239	          0.14479083	          0.05854010	          0.18952191	          0.05000000	          0.05000000	          0.19479058	          0.05000000	          0.05000000	          0.29840065	
          0.56364746	         -8.09669692	          0.71742340	          0.89163309	         27.51826127	         -4.41836139	        -10.67877250	        -27.41837474	          7.45327755	         -4.66986870	          3.14852594	          0.05000000	          0.05000000	          0.05854010	          0.27636027	          0.13652100	          0.05000000	          0.12018082	          0.15078384	          0.21669961	          0.12366805	          0.05000000	          0.22195689	          0.05000000	          0.05000000	          0.26117992	          0.05000000	          0.05000000	          0.31510414	
